<svg width="28" height="28" viewBox="0 0 28 28" fill="none" xmlns="http://www.w3.org/2000/svg">
<g filter="url(#filter0_d)">
<path d="M17.75 0H10.25C6.79875 0 4 2.79875 4 6.25V13.75C4 17.2012 6.79875 20 10.25 20H17.75C21.2012 20 24 17.2012 24 13.75V6.25C24 2.79875 21.2012 0 17.75 0ZM22.125 13.75C22.125 16.1625 20.1625 18.125 17.75 18.125H10.25C7.8375 18.125 5.875 16.1625 5.875 13.75V6.25C5.875 3.8375 7.8375 1.875 10.25 1.875H17.75C20.1625 1.875 22.125 3.8375 22.125 6.25V13.75Z" fill="#635854"/>
<path d="M14 5C11.2387 5 9 7.23875 9 10C9 12.7613 11.2387 15 14 15C16.7613 15 19 12.7613 19 10C19 7.23875 16.7613 5 14 5ZM14 13.125C12.2775 13.125 10.875 11.7225 10.875 10C10.875 8.27625 12.2775 6.875 14 6.875C15.7225 6.875 17.125 8.27625 17.125 10C17.125 11.7225 15.7225 13.125 14 13.125Z" fill="#635854"/>
<path d="M19.375 5.29124C19.7429 5.29124 20.0412 4.99295 20.0412 4.62499C20.0412 4.25703 19.7429 3.95874 19.375 3.95874C19.007 3.95874 18.7087 4.25703 18.7087 4.62499C18.7087 4.99295 19.007 5.29124 19.375 5.29124Z" fill="#635854"/>
</g>
<defs>
<filter id="filter0_d" x="0" y="0" width="28" height="28" filterUnits="userSpaceOnUse" color-interpolation-filters="sRGB">
<feFlood flood-opacity="0" result="BackgroundImageFix"/>
<feColorMatrix in="SourceAlpha" type="matrix" values="0 0 0 0 0 0 0 0 0 0 0 0 0 0 0 0 0 0 127 0" result="hardAlpha"/>
<feOffset dy="4"/>
<feGaussianBlur stdDeviation="2"/>
<feComposite in2="hardAlpha" operator="out"/>
<feColorMatrix type="matrix" values="0 0 0 0 0 0 0 0 0 0 0 0 0 0 0 0 0 0 0.25 0"/>
<feBlend mode="normal" in2="BackgroundImageFix" result="effect1_dropShadow"/>
<feBlend mode="normal" in="SourceGraphic" in2="effect1_dropShadow" result="shape"/>
</filter>
</defs>
</svg>
